<svg xmlns="http://www.w3.org/2000/svg" viewBox="0 0 32 32" fill="none">
  <rect width="32" height="32" rx="6" fill="#222228"/>
  <circle cx="16" cy="16" r="13" stroke="url(#grad)" stroke-width="2"/>
  <path d="M16 8C20.4 8 24 11.6 24 16C24 20.4 20.4 24 16 24C11.6 24 8 20.4 8 16C8 11.6 11.6 8 16 8ZM16 11C13.2 11 11 13.2 11 16C11 18.8 13.2 21 16 21C18.8 21 21 18.8 21 16C21 13.2 18.8 11 16 11Z" fill="url(#grad)"/>
  <defs>
    <linearGradient id="grad" x1="0" y1="0" x2="32" y2="32" gradientUnits="userSpaceOnUse">
      <stop offset="0%" stop-color="#DB934A"/>
      <stop offset="100%" stop-color="#F8EADB"/>
    </linearGradient>
  </defs>
</svg>